<svg width="363" height="176" viewBox="0 0 363 176" fill="none" xmlns="http://www.w3.org/2000/svg">
<path d="M289.476 119.831L313.452 115.183C299.999 84.662 276.792 59.4361 247.449 43.4393C218.105 27.4426 184.276 21.5744 151.237 26.7499C118.197 31.9254 87.8046 47.8536 64.7985 72.0505C41.7925 96.2474 27.4664 127.353 24.0544 160.516L0.0585938 158.072C4.04632 119.149 21.0015 82.6807 48.2175 54.4878C75.4334 26.295 111.341 8.00358 150.207 2.53376C189.074 -2.93606 228.658 4.73108 262.641 24.3112C296.624 43.8913 323.046 74.2553 337.689 110.556L362.669 105.788L338.271 176.001L289.476 119.831Z" fill="#4E8035"/>
</svg>
