<svg width="363" height="175" viewBox="0 0 363 175" fill="none" xmlns="http://www.w3.org/2000/svg">
<path d="M337.911 0.000244141L362.329 70.1124L337.288 65.3849C322.699 101.455 296.475 131.655 262.753 151.218C229.032 170.781 189.735 178.593 151.064 173.42C112.394 168.248 76.5525 150.387 49.198 122.655C21.8434 94.9228 4.5333 58.9002 0 20.2727L23.9557 17.5083C27.8198 50.4309 42.4446 81.1715 65.5741 104.988C88.7036 128.804 119.052 144.373 151.939 149.292C184.825 154.211 218.422 148.207 247.546 132.207C276.67 116.207 299.703 91.0994 313.092 60.7575L289.116 56.1701L337.911 0.000244141Z" fill="#4E8035"/>
</svg>
